<?xml version="1.0" encoding="utf-8"?>
<?xml-stylesheet type="text/xsl" href="rss1.xsl"?>
<rss version="2.0" xmlns:atom="http://www.w3.org/2005/Atom" xmlns:content="http://purl.org/rss/1.0/modules/content/" xmlns:dc="http://purl.org/dc/elements/1.1/" xmlns:media="http://search.yahoo.com/mrss/">
<channel>
 <title>sharemania</title>
 <link>http://www.sharemania.us/</link>
 <atom:link href="http://www.gettyimg.com/" rel="self" type="application/rss+xml" />

 
                <item>
                <title><![CDATA[【Singles (lossless)】FLAC - Paul McCartney - No More Lonely Nights (US 12'' Promo) (1984)]]></title>
                <link><![CDATA[https://sharemania.us/threads/paul-mccartney-no-more-lonely-nights-us-12-promo-1984.281931/]]></link>
                <description><![CDATA[<article>
				<blockquote class="messageText SelectQuoteContainer ugc baseHtml">
					
					<div style="text-align: center"><img src="https://i125.fastpic.org/big/2025/0819/c9/428dbc11e7a09f9b52eba8dbccb29bc9.jpg" class="bbCodeImage LbImage" alt="[​IMG]" data-url="https://i125.fastpic.org/big/2025/0819/c9/428dbc11e7a09f9b52eba8dbccb29bc9.jpg" style="">​</div><br>
<br>
Format: FLAC<br>
Quality: 16 bits Lossless<br>
Album Title: Paul McCartney - No More Lonely Nights (US 12" Promo)<br>
Genre: Electronic<br>
Release Date: 1984<br>
<br>
<br>
01. Paul McCartney - No More Lonely Nights (Special Dance Edit) (04:22)<br>
<br>
<br>




<div class="bbCodeBlock bbCodeVfcHH HiddenContent">
	<div class="attribution type">Hidden Content:</div>
	<blockquote>You must either reply or click 'Like' to see the hidden information contained here.</blockquote>
</div>
					<div class="messageTextEndMarker">&nbsp;</div>
				</blockquote>
			</article>]]></description>
                <author><![CDATA[Shpak]]></author>
                </item>

                
                <item>
                <title><![CDATA[【Bugs!】SECRET NUMBER - Don't Touch (Bugs! 4K)]]></title>
                <link><![CDATA[https://sharemania.us/threads/secret-number-dont-touch-bugs-4k.281930/]]></link>
                <description><![CDATA[<article>
				<blockquote class="messageText SelectQuoteContainer ugc baseHtml">
					
					<span data-s9e-mediaembed="youtube" style="display:inline-block;width:100%;max-width:640px"><span style="display:block;overflow:hidden;position:relative;padding-bottom:56.25%"><iframe allowfullscreen="" loading="lazy" scrolling="no" style="background:url(https://i.ytimg.com/vi/qq7CIIhYMHM/hqdefault.jpg) 50% 50% / cover;border:0;height:100%;left:0;position:absolute;width:100%" src="https://www.youtube.com/embed/qq7CIIhYMHM"></iframe></span></span><br>



<div class="ToggleTriggerAnchor bbCodeSpoilerContainer">
	<button type="button" class="button bbCodeSpoilerButton ToggleTrigger Tooltip JsOnly" data-target="&gt; .SpoilerTarget"><span>Spoiler</span></button>
	<div class="SpoilerTarget bbCodeSpoilerText">General<br>
Complete name                  : H:\bugs\SECRET NUMBER - Don't Touch (Bugs! 4K).mp4<br>
Format                         : MPEG-4<br>
Format profile                 : Base Media<br>
Codec ID                       : isom (isom/iso2/avc1/mp41)<br>
File size                      : 1.10 GiB<br>
Duration                       : 3 min 43 s<br>
Overall bit rate               : 42.1 Mb/s<br>
Frame rate                     : 23.976 FPS<br>
Encoded date                   : 2025-08-11 08:12:07 UTC<br>
Tagged date                    : 2025-08-11 08:12:07 UTC<br>
Writing application            : Blackmagic Design DaVinci Resolve Studio<br>
<br>
Video<br>
ID                             : 1<br>
Format                         : AVC<br>
Format/Info                    : Advanced Video Codec<br>
Format profile                 : High@L5.1<br>
Format settings                : CABAC / 4 Ref Frames<br>
Format settings, CABAC         : Yes<br>
Format settings, Reference fra : 4 frames<br>
Format settings, GOP           : M=2, N=11<br>
Codec ID                       : avc1<br>
Codec ID/Info                  : Advanced Video Coding<br>
Duration                       : 3 min 43 s<br>
Bit rate                       : 41.8 Mb/s<br>
Width                          : 3 840 pixels<br>
Height                         : 2 160 pixels<br>
Display aspect ratio           : 16:9<br>
Frame rate mode                : Constant<br>
Frame rate                     : 23.976 (24000/1001) FPS<br>
Color space                    : YUV<br>
Chroma subsampling             : 4:2:0<br>
Bit depth                      : 8 bits<br>
Scan type                      : Progressive<br>
Bits/(Pixel*Frame)             : 0.210<br>
Stream size                    : 1.09 GiB (99%)<br>
Encoded date                   : 2025-08-11 08:12:07 UTC<br>
Tagged date                    : 2025-08-11 08:12:07 UTC<br>
Color range                    : Full<br>
Color primaries                : BT.709<br>
Transfer characteristics       : BT.709<br>
Matrix coefficients            : BT.709<br>
Codec configuration box        : avcC<br>
<br>
Audio<br>
ID                             : 2<br>
Format                         : AAC LC<br>
Format/Info                    : Advanced Audio Codec Low Complexity<br>
Codec ID                       : mp4a-40-2<br>
Duration                       : 3 min 43 s<br>
Bit rate mode                  : Constant<br>
Bit rate                       : 320 kb/s<br>
Channel(s)                     : 2 channels<br>
Channel layout                 : L R<br>
Sampling rate                  : 48.0 kHz<br>
Frame rate                     : 46.875 FPS (1024 SPF)<br>
Compression mode               : Lossy<br>
Stream size                    : 8.52 MiB (1%)<br>
Default                        : Yes<br>
Alternate group                : 1<br>
Encoded date                   : 2025-08-11 08:12:07 UTC<br>
Tagged date                    : 2025-08-11 08:12:07 UTC<br>
<br>
Other<br>
ID                             : 3<br>
Type                           : Time code<br>
Format                         : QuickTime TC<br>
Duration                       : 3 min 43 s<br>
Frame rate                     : 23.976 (24000/1001) FPS<br>
Time code of first frame       : 01:00:00:00<br>
Time code of last frame        : 01:03:43:03<br>
Time code, stripped            : Yes<br>
Language                       : English<br>
Encoded date                   : 2025-08-11 08:12:07 UTC<br>
Tagged date                    : 2025-08-11 08:12:07 UTC</div>
</div>



<div class="bbCodeBlock bbCodeVfcHH HiddenContent">
	<div class="attribution type">Hidden Content:</div>
	<blockquote>You must reply before you can see the hidden data contained here.</blockquote>
</div>
					<div class="messageTextEndMarker">&nbsp;</div>
				</blockquote>
			</article>]]></description>
                <author><![CDATA[Once14]]></author>
                </item>

                
                <item>
                <title><![CDATA[【Apple Music】WEB-RiP - JOY - Love Splash! 'Apple.Music.Web.1080-fstambuk']]></title>
                <link><![CDATA[https://sharemania.us/threads/joy-love-splash-apple-music-web-1080-fstambuk.281932/]]></link>
                <description><![CDATA[<article>
				<blockquote class="messageText SelectQuoteContainer ugc baseHtml">
					
					<div style="text-align: center"><img src="https://i.ibb.co/TqBSXcMy/JOY-Love-Splash-Apple-Music-Web-1080-fstambuk-VTM.gif" class="bbCodeImage LbImage" alt="[​IMG]" data-url="https://i.ibb.co/TqBSXcMy/JOY-Love-Splash-Apple-Music-Web-1080-fstambuk-VTM.gif" style=""><br>




<div class="bbCodeBlock bbCodeVfcHH HiddenContent">
	<div class="attribution type">Hidden Content:</div>
	<blockquote>You must reply before you can see the hidden data contained here.</blockquote>
</div></div>
					<div class="messageTextEndMarker">&nbsp;</div>
				</blockquote>
			</article>]]></description>
                <author><![CDATA[fstambuk]]></author>
                </item>

                </channel></rss>